/* XPM */
static char *result[] = {
/* columns rows colors chars-per-pixel */
"64 64 14 1 ",
"  c #52046E",
". c #AB1D1D",
"X c #79149E",
"o c #850585",
"O c #9E099E",
"+ c #8B16B5",
"@ c #A80CA8",
"# c #9900D1",
"$ c #A31CD9",
"% c #BB00FF",
"& c #CF1FCF",
"* c #DE3EDE",
"= c #CB5FF5",
"- c None",
/* pixels */
"-------------------------------  -------------------------------",
"-------------------------------  -------------------------------",
"-----------------------------      -----------------------------",
"-----------------------------      -----------------------------",
"-----------------------------  ==  -----------------------------",
"-----------------------------  ==  -----------------------------",
"---------------------------    %%    ---------------------------",
"---------------------------    %%    ---------------------------",
"----------        ---------  %%%%%%  ---------        ----------",
"----------        ---------  %%%%%%  ---------        ----------",
"----------  ====    -------    %%    -------    %%%%  ----------",
"----------  ====    -------    %%    -------    %%%%  ----------",
"----------  ==%%%%    -----  ++  ++  -----    %%%%%%  ----------",
"----------  ==%%%%    -----  ++  ++  -----    %%%%%%  ----------",
"----------    %%  $$   ----  ++++++  ---    XX  %%    ----------",
"----------    %%  $$   ----  ++++++  ---    XX  %%    ----------",
"------------    $$$$$$   --  ++  ++  -    ++XXXX    ------------",
"------------    $$$$$$   --  ++  ++  -    ++XXXX    ------------",
"--------------    $$+++                 ++++XX    --------------",
"--------------    $$+++                 ++++XX    --------------",
"----------------    ++ @@@@    &&    OOO  ++    ----------------",
"----------------    ++ @@@@    &&    OOO  ++    ----------------",
"------------------    @@@@@  &&&&&&  OOOoo    ------------------",
"------------------    @@@@@  &&&&&&  OOOoo    ------------------",
"--------------------   @@  &&      && OO    --------------------",
"--------------------   @@  &&      && OO    --------------------",
"----------------------   &&  &&&&&&  &    ----------------------",
"----------------------   &&  &&&&&&  &    ----------------------",
"------                 &&  ****  &&&& &&                 -------",
"------                 &&  ****  &&&& &&                 -------",
"-      ===  $$++++++  @  &&  **&&&&  &  OO  ++XXXX  %%        --",
"    ===%%%%%  ++++  @@@@@  &&      && OOOOOO  ++  %%%%%%%##     ",
"    ===%%%%%  ++++  @@@@@  &&      && OOOOOO  ++  %%%%%%%##     ",
"-      %%%  $$$$++++  @OOOO  ****&&  OOOoo  ++XXXX  %%        --",
"-      %%%  $$$$++++  @OOOO  ****&&  OOOoo  ++XXXX  %%        --",
"------                 OOOOOO  &&  OOOoo                 -------",
"------                 OOOOOO  &&  OOOoo                 -------",
"--------------------   OOOOOOOO  OOOOooo    --------------------",
"--------------------   OOOOOOOO  OOOOooo    --------------------",
"------------------     OOOOOO  ..  ooooo      ------------------",
"------------------     OOOOOO  ..  ooooo      ------------------",
"----------------    ++ OOOO    ..    ooo  XX    ----------------",
"----------------    ++ OOOO    ..    ooo  XX    ----------------",
"--------------    $$+++      ++  ++     ++XXXX    --------------",
"--------------    $$+++      ++  ++     ++XXXX    --------------",
"------------    $$$$++   --  ++++++  -    ++XXXX    ------------",
"------------    $$$$++   --  ++++++  -    ++XXXX    ------------",
"----------    ==  $$   ----  ++++++  ---    XX  %%    ----------",
"----------    ==  $$   ----  ++++++  ---    XX  %%    ----------",
"----------  ==%%%%    -----  ++  ++  -----    %%%%##  ----------",
"----------  ==%%%%    -----  ++  ++  -----    %%%%##  ----------",
"----------  %%%%    -------    %%    -------    ####  ----------",
"----------  %%%%    -------    %%    -------    ####  ----------",
"----------        ---------  %%%%%%  ---------        ----------",
"----------        ---------  %%%%%%  ---------        ----------",
"---------------------------    %%    ---------------------------",
"---------------------------    %%    ---------------------------",
"-----------------------------  ##  -----------------------------",
"-----------------------------  ##  -----------------------------",
"-----------------------------  ##  -----------------------------",
"-----------------------------      -----------------------------",
"-----------------------------      -----------------------------",
"-------------------------------  -------------------------------",
"-------------------------------  -------------------------------"
};
