/* XPM */
static char *result[] = {
/* columns rows colors chars-per-pixel */
"64 64 3 1 ",
"  c black",
". c #00750A",
"X c None",
/* pixels */
"XXXXXXXXXXXXXXXXXXXXXXXXXXXXXXXXXXXXXXXXXXXXXXXXXXXXXXXXXXXXXXXX",
"XXXXXXXXXXXXXXXXXXXXXXXXXXXXXXXXXXXXXXXXXXXXXXXXXXXXXXXXXXXXXXXX",
"XXXXXXXXXXXXXXXXXXXXXXXXXXXXXXXXXXXXXXXXXXXXXXXXXXXXXXXXXXXXXXXX",
"XXXXXXXXXXXXXXXXXXXXXXXXXXXXXXXXXXXXXXXXXXXXXXXXXXXXXXXXXXXXXXXX",
"XXXXXXXXXXXXXXXXXXXXXXXXXXXXXXXXXXXXXXXXXXXXXXXXXXXXXXXXXXXXXXXX",
"XXXXXXXXXXXXXXXXXXXXXXXXXXXXXXXXXXXXXXXXXXXXXXXXXXXXXXXXXXXXXXXX",
"XXXXXXXXXXXXXXXXXXXXXX..XXXXXXXXXXXXXXX..XXXXXXXXXXXXXXXXXXXXXXX",
"XXXXXXXXXXXXXXXXXXXX....XXXXXXXXXXXXXXX....XXXXXXXXXXXXXXXXXXXXX",
"XXXXXXXXXXXXXXXXX.......XXXXXXXXXXXXXXX......XXXXXXXXXXXXXXXXXXX",
"XXXXXXXXXXXXXXX.........XXXXXXXXXXXXXXX........XXXXXXXXXXXXXXXXX",
"XXXXXXXXXXXX............XXXXXXXXXXXXXXX..........XXXXXXXXXXXXXXX",
"XXXXXXXXX...............XXXXXXXXXXXXXXX............XXXXXXXXXXXXX",
"XXXXXXX.................XXXXXXXXXXXXXXX..............XXXXXXXXXXX",
"XXXX....................XXXXXXXXXXXXXXX................XXXXXXXXX",
"XX......................XXXXXXXXXXXXXXX..................XXXXXXX",
"...........................................................XXXXX",
".............................................................XXX",
"...............................................................X",
"................................................................",
"....            ...   ......   ...         ...               ...",
"....            ...   ......   ...         ...               ...",
"....            ...   ......   ...         ...               ...",
"....            ...   ......   ...         ...               ...",
"....            ...   ......   ...         ...               ...",
"....   ............   ......   ......   ............   .........",
"....   ............   ......   ......   ............   .........",
"....   ............   ......   ......   ............   .........",
"....   ............   ......   ......   ............   .........",
"....   ............   ......   ......   ............   .........",
"....         .........      .........   ............   .........",
"....         .........      .........   ............   .........",
"....         .........      .........   ............   .........",
"....         .........      .........   ............   .........",
"....         .........      .........   ............   .........",
"....   ............   ......   ......   ............   .........",
"....   ............   ......   ......   ............   .........",
"....   ............   ......   ......   ............   .........",
"....   ............   ......   ......   ............   .........",
"....            ...   ......   ...         .........   .........",
"....            ...   ......   ...         .........   .........",
"....            ...   ......   ...         .........   .........",
"....            ...   ......   ...         .........   .........",
"....            ...   ......   ...         .........   .........",
"................................................................",
"................................................................",
"................................................................",
"................................................................",
"..............................................................XX",
"XX......................XXXXXXXXXXXXXXX.....................XXXX",
"XXXX....................XXXXXXXXXXXXXXX...................XXXXXX",
"XXXXXX..................XXXXXXXXXXXXXXX.................XXXXXXXX",
"XXXXXXXXX...............XXXXXXXXXXXXXXX...............XXXXXXXXXX",
"XXXXXXXXXXX.............XXXXXXXXXXXXXXX............XXXXXXXXXXXXX",
"XXXXXXXXXXXXX...........XXXXXXXXXXXXXXX..........XXXXXXXXXXXXXXX",
"XXXXXXXXXXXXXXX.........XXXXXXXXXXXXXXX........XXXXXXXXXXXXXXXXX",
"XXXXXXXXXXXXXXXXXX......XXXXXXXXXXXXXXX......XXXXXXXXXXXXXXXXXXX",
"XXXXXXXXXXXXXXXXXXXX....XXXXXXXXXXXXXXX....XXXXXXXXXXXXXXXXXXXXX",
"XXXXXXXXXXXXXXXXXXXXXX..XXXXXXXXXXXXXXX..XXXXXXXXXXXXXXXXXXXXXXX",
"XXXXXXXXXXXXXXXXXXXXXXXXXXXXXXXXXXXXXXXXXXXXXXXXXXXXXXXXXXXXXXXX",
"XXXXXXXXXXXXXXXXXXXXXXXXXXXXXXXXXXXXXXXXXXXXXXXXXXXXXXXXXXXXXXXX",
"XXXXXXXXXXXXXXXXXXXXXXXXXXXXXXXXXXXXXXXXXXXXXXXXXXXXXXXXXXXXXXXX",
"XXXXXXXXXXXXXXXXXXXXXXXXXXXXXXXXXXXXXXXXXXXXXXXXXXXXXXXXXXXXXXXX",
"XXXXXXXXXXXXXXXXXXXXXXXXXXXXXXXXXXXXXXXXXXXXXXXXXXXXXXXXXXXXXXXX",
"XXXXXXXXXXXXXXXXXXXXXXXXXXXXXXXXXXXXXXXXXXXXXXXXXXXXXXXXXXXXXXXX"
};
