/* XPM */
static char *_648702287553[] = {
/* columns rows colors chars-per-pixel */
"16 16 3 1 ",
"  c black",
". c #00A800",
"X c #4CDC48",
/* pixels */
".XXXXXXXXXXXXXX.",
"X.............. ",
"X.............. ",
"X.............. ",
"X.............. ",
"X.............. ",
"X.............. ",
"X.............. ",
"X.............. ",
"X.............. ",
"X.............. ",
"X.............. ",
"X.............. ",
"X.............. ",
"X.............. ",
".              ."
};
