/* XPM */
static char *result[] = {
/* columns rows colors chars-per-pixel */
"64 64 3 1 ",
"  c black",
". c gray19",
"X c #616061",
/* pixels */
"                                   .............................",
"                                 ...............................",
"                                 ...............................",
"                               .................................",
"                              ..................................",
"                             ...................................",
"                           .....................................",
"                         .......................................",
"                       .........................................",
"                       .........................................",
"                    ............................................",
"                  ..............................................",
"                ................................................",
"               .................................................",
"              ..................................................",
"             ...................................................",
"             ...................................................",
"             ...................................................",
"            ....................................................",
"           .....................................................",
"         .......................................................",
"        ........................................................",
"        ........................................................",
"       .........................................................",
"      ..........................................................",
"      ..........................................................",
"    ............................................................",
"     ...........................................................",
"    ..........................................................XX",
"  ...........................................................XXX",
"  ..........................................................XXXX",
" ...........................................................XXXX",
" ..........................................................XXXXX",
"..........................................................XXXXXX",
".........................................................XXXXXXX",
"........................................................XXXXXXXX",
"......................................................XXXXXXXXXX",
".....................................................XXXXXXXXXXX",
"....................................................XXXXXXXXXXXX",
"...................................................XXXXXXXXXXXXX",
"..................................................XXXXXXXXXXXXXX",
".................................................XXXXXXXXXXXXXXX",
"................................................XXXXXXXXXXXXXXXX",
"...............................................XXXXXXXXXXXXXXXXX",
".............................................XXXXXXXXXXXXXXXXXXX",
"..............................................XXXXXXXXXXXXXXXXXX",
".............................................XXXXXXXXXXXXXXXXXXX",
"...........................................XXXXXXXXXXXXXXXXXXXXX",
"..........................................XXXXXXXXXXXXXXXXXXXXXX",
".........................................XXXXXXXXXXXXXXXXXXXXXXX",
".........................................XXXXXXXXXXXXXXXXXXXXXXX",
".......................................XXXXXXXXXXXXXXXXXXXXXXXXX",
".......................................XXXXXXXXXXXXXXXXXXXXXXXXX",
"......................................XXXXXXXXXXXXXXXXXXXXXXXXXX",
".....................................XXXXXXXXXXXXXXXXXXXXXXXXXXX",
".....................................XXXXXXXXXXXXXXXXXXXXXXXXXXX",
"....................................XXXXXXXXXXXXXXXXXXXXXXXXXXXX",
"...................................XXXXXXXXXXXXXXXXXXXXXXXXXXXXX",
"..................................XXXXXXXXXXXXXXXXXXXXXXXXXXXXXX",
"..................................XXXXXXXXXXXXXXXXXXXXXXXXXXXXXX",
".................................XXXXXXXXXXXXXXXXXXXXXXXXXXXXXXX",
"................................XXXXXXXXXXXXXXXXXXXXXXXXXXXXXXXX",
"...............................XXXXXXXXXXXXXXXXXXXXXXXXXXXXXXXXX",
"...............................XXXXXXXXXXXXXXXXXXXXXXXXXXXXXXXXX"
};
