/* XPM */
static char *result[] = {
/* columns rows colors chars-per-pixel */
"110 64 2 1 ",
"  c black",
". c white",
/* pixels */
"                                                                                                              ",
"                                                                                                              ",
"                                                                                                              ",
"                                                                                                              ",
"                                                                                                              ",
"                                                                                                              ",
"                                                                                                              ",
"                                                                                                              ",
"                                                                                                              ",
"     .....       .....     ..        ..   .........          .....     ..        ..   .........   .......     ",
"     .....       .....     ..        ..   .........          .....     ..        ..   .........   .......     ",
"     .....       .....     ..        ..   .........          .....     ..        ..   .........   .......     ",
"     .....       .....     ..        ..   .........          .....     ..        ..   .........   .......     ",
"     .....       .....     ..        ..   .........          .....     ..        ..   .........   .......     ",
"     .....       .....     ..        ..   .........          .....     ..        ..   .........   .......     ",
"     .....       .....     ..        ..   .........          .....     ..        ..   .........   .......     ",
"     .....       .....     ..        ..   .........          .....     ..        ..   .........   .......     ",
"     .....       .....     ..        ..   .........          .....     ..        ..   .........   .......     ",
"  ...          ..     ..   .....  .....   ..               ..     ..   ..        ..   ..          ..     ...  ",
"  ...          ..     ..   .....  .....   ..               ..     ..   ..        ..   ..          ..     ...  ",
"  ...          ..     ..   .....  .....   ..               ..     ..   ..        ..   ..          ..     ...  ",
"  ...          ..     ..   .....  .....   ..               ..     ..   ..        ..   ..          ..     ...  ",
"  ...          ..     ..   .....  .....   ..               ..     ..   ..        ..   ..          ..     ...  ",
"  ...          ..     ..   .....  .....   ..               ..     ..   ..        ..   ..          ..     ...  ",
"  ...          ..     ..   .....  .....   ..               ..     ..   ..        ..   ..          ..     ...  ",
"  ...          ..     ..   .....  .....   ..               ..     ..   ..        ..   ..          ..     ...  ",
"  ...          ..     ..   .....  .....   ..               ..     ..   ..        ..   ..          ..     ...  ",
"  ...  .....   .........   ..   ..   ..   .......          ..     ..     ...  ...     .......     .......     ",
"  ...  .....   .........   ..   ..   ..   .......          ..     ..     ...  ...     .......     .......     ",
"  ...  .....   .........   ..   ..   ..   .......          ..     ..     ...  ...     .......     .......     ",
"  ...  .....   .........   ..   ..   ..   .......          ..     ..     ...  ...     .......     .......     ",
"  ...  .....   .........   ..   ..   ..   .......          ..     ..     ...  ...     .......     .......     ",
"  ...  .....   .........   ..   ..   ..   .......          ..     ..     ...  ...     .......     .......     ",
"  ...  .....   .........   ..   ..   ..   .......          ..     ..     ...  ...     .......     .......     ",
"  ...  .....   .........   ..   ..   ..   .......          ..     ..     ...  ...     .......     .......     ",
"  ...  .....   .........   ..   ..   ..   .......          ..     ..     ...  ...     .......     .......     ",
"  ...  .....   .........   ..   ..   ..   .......          ..     ..     ...  ...     .......     .......     ",
"  ...     ..   ..     ..   ..        ..   ..               ..     ..     ...  ...     ..          ..   ..     ",
"  ...     ..   ..     ..   ..        ..   ..               ..     ..     ...  ...     ..          ..   ..     ",
"  ...     ..   ..     ..   ..        ..   ..               ..     ..     ...  ...     ..          ..   ..     ",
"  ...     ..   ..     ..   ..        ..   ..               ..     ..     ...  ...     ..          ..   ..     ",
"  ...     ..   ..     ..   ..        ..   ..               ..     ..     ...  ...     ..          ..   ..     ",
"  ...     ..   ..     ..   ..        ..   ..               ..     ..     ...  ...     ..          ..   ..     ",
"  ...     ..   ..     ..   ..        ..   ..               ..     ..     ...  ...     ..          ..   ..     ",
"  ...     ..   ..     ..   ..        ..   ..               ..     ..     ...  ...     ..          ..   ..     ",
"  ...     ..   ..     ..   ..        ..   ..               ..     ..     ...  ...     ..          ..   ..     ",
"     .....     ..     ..   ..        ..   .........          .....          ..        .........   ..     ...  ",
"     .....     ..     ..   ..        ..   .........          .....          ..        .........   ..     ...  ",
"     .....     ..     ..   ..        ..   .........          .....          ..        .........   ..     ...  ",
"     .....     ..     ..   ..        ..   .........          .....          ..        .........   ..     ...  ",
"     .....     ..     ..   ..        ..   .........          .....          ..        .........   ..     ...  ",
"     .....     ..     ..   ..        ..   .........          .....          ..        .........   ..     ...  ",
"     .....     ..     ..   ..        ..   .........          .....          ..        .........   ..     ...  ",
"     .....     ..     ..   ..        ..   .........          .....          ..        .........   ..     ...  ",
"     .....     ..     ..   ..        ..   .........          .....          ..        .........   ..     ...  ",
"                                                                                                              ",
"                                                                                                              ",
"                                                                                                              ",
"                                                                                                              ",
"                                                                                                              ",
"                                                                                                              ",
"                                                                                                              ",
"                                                                                                              ",
"                                                                                                              "
};
