/* XPM */
static char *result[] = {
/* columns rows colors chars-per-pixel */
"64 64 11 1 ",
"  c #967903",
". c #990C44",
"X c #87224A",
"o c #A32759",
"O c #FF0062",
"+ c #4CFC2D",
"@ c #FFCC00",
"# c #0007E0",
"$ c #A31DA3",
"% c #19FF88",
"& c None",
/* pixels */
"&&&&&&&&&&&&&&&&&&&&&&&&&&&&&&&&&&&&&&&&&&&&&&&&&&&&&&&&&&&&&&&&",
"&&&&&&&&&&&&&&&&&&&&&&&&&&&&&&&&&&&&&&&&&&&&&&&&&&&&&&&&&&&&&&&&",
"&&&&&&&&&&&&&&&&&&&&&&&&&&&&&&&&&&&&&&&&&&&&&&&&&&&&&&&&&&&&&&&&",
"&&&&&&&&&&&&&&&&&&&&&&&&&&&&&&&&&&&&&&&&&&&&&&&&&&&&&&&&&&&&&&&&",
"&&&&&&&&&&&&&&&&&&&&&&&&&&&&&&&&&&&&&&&&&&&&&&&&&&&&&&&&&&&&&&&&",
"&&&&&&&&&&&&&&&&&&&&&&&&&&&&&&&&&&&&&&&&&&&&&&&&&&&&&&&&&&&&&&&&",
"&&&&&&&&&&&&&&&&&&&&&&&&&&&&&&&&&&&&&&&&&&&&&&&&&&&&&&&&&&&&&&&&",
"&&&&&&&&&&&&&&&&&&&&&&&&&&&&&&&&&&&&&&&&&&&&&&&&&&&&&&&&&&&&&&&&",
"&&&&&&&&&&&&&&&&&&&&&&&&&&&&&&&&&&&&&&&&&&&&&&&&&&&&&&&&&&&&&&&&",
"&&&&&&&&&&&&&&&&&&&&&&&&&&&&&&&&&&&&&&&&&&&&&&&&&&&&&&&&&&&&&&&&",
"&&&&&&&&&&&&&&&&&&&&&&&&&&&&&&&&&&&&&&&&&&&&&&&&&&&&&&&&&&&&&&&&",
"&&&&&&&&&&&&&&&&&&&&&&&&&&&&&&&&&&&&&&&&&&&&&&&&&&&&&&&&&&&&&&&&",
"&&&&&&&&&&&&&&&&&&&&&&&&&&&&&&&&&&&&&&&&&&&&&&&&&&&&&&&&&&&&&&&&",
"&&&&&&&&&&&&&&&&&&&&&&&&&&&&&&&&&&&&&&&&&&&&&&&&&&&&&&&&&&&&&&&&",
"&&&&&&&&&&&&&&&&&&&&&&&&&&&&&&&&&&&&&&&&&&&&&&&&&&&&&&&&&&&&&&&&",
"&&&&&&&&&&&&&&&&&&&&&&&&&&&&&&&&&&&&&&&&&&&&&&&&&&&&&&&&&&&&&&&&",
"&&&&&&&&&&&&&&&&&&&&&&&&&&&&&&&&&&&&&&&&&&&&&&&&&&&&&&&&&&&&&&&&",
"&&&&&&&&&&&&&&&&&&&&&&&&&&&&&&&&&&&&&&&&     &&&&&&&&&&&&&&&&&&&",
"&&&&&&&&&&&&&&&&&&&&&&&&&&&&&&&&&&&&&&  #####  &&&&&&&&&&&&&&&&&",
"&&&&&&&&&&&&&&&&&&&&&&&&&&&&&&&&&&&&  #########  &&&&&&&&&&&&&&&",
"&&&&&&&&&&&&&&&&&&&&&&&&&&&&&&&&&   #############     &&&&&&&&&&",
"&&&&&&&&&&&&&&&&         &&&&&&   @ ############# @@@  &&&&&&&&&",
"&&&&&&&&&&&&&&   @@@@@@@   &&   @@ ############### @@@  &&&&&&&&",
"&&&&&&&&&&&&& @@@@@@@@@@@@    @@@@ ############### @@@@ &&&&&&&&",
"&&&&&&&&&&&   @@     @@@@@@@@@@@@@ ############### @@@@ &&&&&&&&",
"&&&&&&&&&  $$$  OOOOO @@@@@@@@@@@@ ############### @@@@  &&&&&&&",
"&&&&&&&& $$$$$ OOOOOOO @@@@@@   @@ ############### @@@@@ &&&&&&&",
"&&&&&&&& $$$$ OOOOOOOOO @@@@ %%% @@ ############# @@@@   &&&&&&&",
"&&&&&&& $$$$ OOOOOOOOOOO @@ %%%%% @ ############# @@@ +++ &&&&&&",
"&&&&&&& $$$$ OOOOOOOOOOO @@ %%%%% @@  #########  @@@@ +++ &&&&&&",
"&&&&&&                                                    &&&&&&",
"&&&&&&  ooooooooooooooooooooooooooooooXXXXXXXXXXXXX.X.XXX &&&&&&",
"&&&&&&& oooooooooooooooooooooooooooooXXXXXXXXXXXXX.....X  &&&&&&",
"&&&&&&&  oooooooooooooooooooooooooooXXXXXXXXXXXX.......X &&&&&&&",
"&&&&&&&  ooooooooooooooooooooooooooXXXXXXXXXXXX......... &&&&&&&",
"&&&&&&&& ooooooooooooooooooooooooooXXXXXXXXXXXX........ &&&&&&&&",
"&&&&&&&& oooooooooooooooooooooooooXXXXXXXXXXXX........X &&&&&&&&",
"&&&&&&&& ooooooooooooooooooooooooXXXXXXXXXXXX.........X &&&&&&&&",
"&&&&&&&&& ooooooooooooooooooooooXXXXXXXXXXXXX......... &&&&&&&&&",
"&&&&&&&&& ooooooooooooooooooXoXXXXXXXXXXXXXX.......... &&&&&&&&&",
"&&&&&&&&& oooooooooooooooooXXXXXXXXXXXXXXXX........... &&&&&&&&&",
"&&&&&&&&&& oooooooooooooXXXXXXXXXXXXXXXXX............ &&&&&&&&&&",
"&&&&&&&&&& oooooooooooXXXXXXXXXXXXXXXXXX............. &&&&&&&&&&",
"&&&&&&&&&& oooooooooXXXXXXXXXXXXXXXXXXX.............. &&&&&&&&&&",
"&&&&&&&&&& oooooooooXXXXXXXXXXXXXXXXXX............... &&&&&&&&&&",
"&&&&&&&&&&& ooooooXXXXXXXXXXXXXXXXXX................ &&&&&&&&&&&",
"&&&&&     & oooooXXXXXXXXXXXXXXXX................... &&&&&&&&&&&",
"&&&&& @@@   ooooXXXXXXXXXXXXXXX..................... &&&&&&&&&&&",
"&&&&&  @@@ & oXXXXXXXXXXXXXXX...................... &&&&&&&   &&",
"&&&&&&  @@   XXXXXXXXXXXXXXXX...................... &&&&&   @  &",
"&&&&&&&  @@  XXXXXXXXXXXXXXX....................... &&&  @@@@@ &",
"&&&&&&&&  @ & XXXXXXXXXXXXXX...................... &&& @@@@@@@ &",
"&&&&&&  @@  & XXXXXXXXXXXXXX...................... &&& @@@     &",
"&&&&&&  @  && XXXXXXXXXXXXXX...................... &&&     &&  &",
"&&&&&&&   &&&& XXXXXXXXXXXX...................... &&&&&&&&&&&&&&",
"&&&&&&&&&&&&&&                                    &&&&&&&&&&&&&&",
"&&&&&&&&&&&&&&&&&&&&&&&&&&&&&&&&&&&&&&&&&&&&&&&&&&&&&&&&&&&&&&&&",
"&&&&&&&&&&&&&&&&&&&&&&&&&&&&&&&&&&&&&&&&&&&&&&&&&&&&&&&&&&&&&&&&",
"&&&&&&&&&&&&&&&&&&&&&&&&&&&&&&&&&&&&&&&&&&&&&&&&&&&&&&&&&&&&&&&&",
"&&&&&&&&&&&&&&&&&&&&&&&&&&&&&&&&&&&&&&&&&&&&&&&&&&&&&&&&&&&&&&&&",
"&&&&&&&&&&&&&&&&&&&&&&&&&&&&&&&&&&&&&&&&&&&&&&&&&&&&&&&&&&&&&&&&",
"&&&&&&&&&&&&&&&&&&&&&&&&&&&&&&&&&&&&&&&&&&&&&&&&&&&&&&&&&&&&&&&&",
"&&&&&&&&&&&&&&&&&&&&&&&&&&&&&&&&&&&&&&&&&&&&&&&&&&&&&&&&&&&&&&&&",
"&&&&&&&&&&&&&&&&&&&&&&&&&&&&&&&&&&&&&&&&&&&&&&&&&&&&&&&&&&&&&&&&"
};
