/* XPM */
static char *result[] = {
/* columns rows colors chars-per-pixel */
"64 64 6 1 ",
"  c black",
". c #CCA208",
"X c #F7DE00",
"o c #FFCB2E",
"O c white",
"+ c None",
/* pixels */
"++++++++++++++++++++++++++           +++++++++++++++++++++++++++",
"++++++++++++++++++++++    oooooXXXXXX    +++++++++++++++++++++++",
"+++++++++++++++++++   oooooooooXXXXXXXXXX   ++++++++++++++++++++",
"+++++++++++++++++  ooooooooooXXXXXXXXXXXXXXX  ++++++++++++++++++",
"+++++++++++++++  oooooooooooXXXXXXXXXXXXXXXXXX   +++++++++++++++",
"++++++++++++++ ooooooooooooXXXXXXXXXXXXXXXXXXXXXX ++++++++++++++",
"+++++++++++++ ooooooooooooXXXXXXXXXXXXXXXXXXXXXXXX +++++++++++++",
"+++++++++++  ooooooooooooXXXXXXXXXXXXXXXXXXXXXXXXXX  +++++++++++",
"++++++++++ ooooooooooooooXXXXXXXXXXXXXXXXXXXXXXXXXXXX ++++++++++",
"+++++++++ oooooooooooooooXXXXXXXXXXXXXXXXXXXXXXXXXXXXX +++++++++",
"++++++++ oooooooooooooooXXXXXXXXXXXXXXXXXXXXXXXXXXXXXXX ++++++++",
"+++++++ ooooooooooooooXXXXXXXXXXXXXXXXXXXXXXXXXXXXXXXXXX +++++++",
"+++++++ ooooooooooooXXXXXXXXXXXXXXXXXXXXXXXXXXXXXXXXXXXX +++++++",
"++++++ oooooooooooXX     XXXXXXXXXXXXXX     XXXXXXXXXXXXX ++++++",
"+++++ oooooooooooX  OOOOO  XXXXXXXXXX  OOOOO  XXXXXXXXXXXX +++++",
"++++ ooooooooooo  OOOOOOOOO  XXXXXX  OOOOOOOOO  XXXXXXXXXXX ++++",
"++++ oooooooooo OOOOOOOOOOOOO XXXX OOOOOOOOOOOOO XXXXXXXXXX ++++",
"+++ ooooooooooX OOOOOOOOOOOOO XXXX OOOOOOOOOOOOO XXXXXXXXXXX +++",
"+++ oooooooooo OOOOOOOOOOOOOOO XX OOOOOOOOOOOOOOO XXXXXXXXXX +++",
"++ ooooooooooX OOOOOOOOOOOOOOO XX OOOOOOOOOOOOOOO XXXXXXX...X ++",
"++ oooooooooX OOOOOOO   OOOOOOO  OOOOOOOO   OOOOOO XXXXX..... ++",
"++ oooooooooX OOOOOO     OOOOOO  OOOOOOO     OOOOO XXXX...... ++",
"+ ooooooooXXX OOOOO       OOOOO  OOOOOO       OOOO XXXX....... +",
"+ oooooooooXX OOOOO       OOOOO  OOOOOO       OOOO XXXX....... +",
"+ ooooooooXXX OOOOO O     OOOOO  OOOOOO O     OOOO XXXX....... +",
"+ ooooooooXXXX OOOOOOO   OOOOO XX OOOOOOOO   OOOO XXXXX....... +",
" ooooooooXXXXX OOOOOO   OOOOOO XX OOOOOOO   OOOOO XXXXX........ ",
" ooooooooXXXXXX OOOOOOOOOOOOO XXXX OOOOOOOOOOOOO XXXXXX........ ",
" ooooooooXXXXXX OOOOOOOOOOOOO XXXX OOOOOOOOOOOOO XXXXXX........ ",
" oooooooXXXXXXXX  OOOOOOOOO  XXXXXX  OOOOOOOOO  XXXXXXX........ ",
" ooooooXXXXXXXXXXX  OOOOO  XXXXXXXXXX  OOOOO  XXXXXXXX......... ",
" oooooXXXXXXXXXXXXXX     XXXXXXXXXXXXXX     XXXXXXXXXX......... ",
" oooXXXXXXXXXXXXXXXXXXXXXXXXXXXXXXXXXXXXXXXXXXXXXXXXXX......... ",
" ooXXXXXXXXXXXXXXXXXXXXXXXXXXXXXXXXXXXXXXXXXXXXXXXXXX.......... ",
" oXXXXXXXXXXXXXXXXXXXXXXXXXXXXXXXXXXXXXXXXXXXXXXXXXXX.......... ",
" XXXXXXXXXXXXXXXXXXXXXXXXXXXXXXXXXXXXXXXXXXXXXXXXXXXX.......... ",
" XXXXXXXXXXXXXXXXXXXXXXXXXXXXXXXXXXXXXXXXXXXXXXXXXXXX.......... ",
"+ XXXXXXXXXXXXXXXXXXXXXXXXXXXXXXXXXXXXXXXXXXXXXXXXXXX......... +",
"+ XXXXXXXXXXXXXXXXXXXXXXXXXXXXXXXXXXXXXXXXXXXXXXXXXX.......... +",
"+ XXXXXXXXXXXXXXXXXXXXXXXXXXXXXXXXXXXXXXXXXXXXXXXXXXX......... +",
"+ XXXXXXXXXXX XXXXXXXXXXXXXXXXXXXXXXXXXXXXXXXXXXXX X.......... +",
"++ XXXXXXXXXX XXXXXXXXXXXXXXXXXXXXXXXXXXXXXXXXXXXX X......... ++",
"++ XXXXXXXXXX XXXXXXXXXXXXXXXXXXXXXXXXXXXXXXXXXXXX X......... ++",
"++ XXXXXXXXXX XXXXXXXXXXXXXXXXXXXXXXXXXXXXXXXXXXXX X......... ++",
"+++ XXXXXXXXXX XXXXXXXXXXXXXXXXXXXXXXXXXXXXXXXXXX X......... +++",
"+++ XXXXXXXXXXX XXXXXXXXXXXXXXXXXXXXXXXXXXXXXXXX X.......... +++",
"++++ XXXXXXXXXXX XXXXXXXXXXXXXXXXXXXXXXXXXXXXXX XX......... ++++",
"++++ XXXXXXXXXXXX XXXXXXXXXXXXXXXXXXXXXXXXXXXX XX.......... ++++",
"++++ XXXXXXXXXXXXX  XXXXXXXXXXXXXXXXXXXXXXXX  XX........... ++++",
"+++++ XXXXXXXXXXXXXX  XXXXXXXXXXXXXXXXXXXX  XXX........... +++++",
"++++++ XXXXXXXXXXXXXXX     XXXXXXXXXX     XXX............ ++++++",
"+++++++ XXXXXXXXXXXXXXXXXXX          XXXXXXX............ +++++++",
"+++++++ XXXXXXXXXXXXXXXXXXXXXXXXXXXXXXXXXX.............. +++++++",
"++++++++ XXXXXXXXXXXXXXXXXXXXXXXXXXXXXXXX.............. ++++++++",
"+++++++++ XXXXXXXXXXXXXXXXXXXXXXXXXXXX................ +++++++++",
"++++++++++ XXXXXXXXXXXXXXXXXXXXXXXXX................. ++++++++++",
"+++++++++++  XXXXXXXXXXXXXXXXXXX...................  +++++++++++",
"+++++++++++++ XXXXXXXXXXXXXXXXX................... +++++++++++++",
"++++++++++++++ XXXXXXXXXXXXXXX................... ++++++++++++++",
"+++++++++++++++  XXXXXXXXXXXXX................   +++++++++++++++",
"+++++++++++++++++  XXXXXXXXXXX..............  ++++++++++++++++++",
"+++++++++++++++++++   XXXXXXXXX..........   ++++++++++++++++++++",
"++++++++++++++++++++++    XXXXXX.....    +++++++++++++++++++++++",
"++++++++++++++++++++++++++           +++++++++++++++++++++++++++"
};
