/* XPM */
static char *result[] = {
/* columns rows colors chars-per-pixel */
"16 16 3 1 ",
"  c black",
". c #C84C0C",
"X c #FCD8A8",
/* pixels */
"... X  X..  X ..",
"....  X.....   X",
"....  X.....  . ",
"X...  X...... . ",
"X... X....... . ",
".... X......... ",
".... X.....XX  X",
".... X....X... X",
"...  X....X.... ",
"...  X....X.... ",
"X.   X .. X...  ",
"X. XXX  . X... X",
". X.....  X... X",
". X....   X... X",
".X......   ..   ",
" X.X..X X  XX  X"
};
