/* XPM */
static char *result[] = {
/* columns rows colors chars-per-pixel */
"64 64 5 1 ",
"  c black",
". c #700909",
"X c #9C1C1C",
"o c #BD2F2F",
"O c None",
/* pixels */
"OOOOOOOOOOOOOOOOOOOOOOOOOOOOOOO  OOOOOOOOOOOOOOOOOOOOOOOOOOOOOOO",
"OOOOOOOOOOOOOOOOOOOOOOOOOOOOOO XX OOOOOOOOOOOOOOOOOOOOOOOOOOOOOO",
"OOOOOOOOOOOOOOOOOOOOOOOOOOOOO XXXX OOOOOOOOOOOOOOOOOOOOOOOOOOOOO",
"OOOOOOOOOOOOOOOOOOOOOOOOOOOO oXXXXX OOOOOOOOOOOOOOOOOOOOOOOOOOOO",
"OOOOOOOOOOOOOOOOOOOOOOOOOOO ooXXXXXX OOOOOOOOOOOOOOOOOOOOOOOOOOO",
"OOOOOOOOOOOOOOOOOOOOOOOOOO ooXXXXXXXX OOOOOOOOOOOOOOOOOOOOOOOOOO",
"OOOOOOOOOOOOOOOOOOOOOOOOO oooXXXXXXXXX OOOOOOOOOOOOOOOOOOOOOOOOO",
"OOOOOOOOOOOOOOOOOOOOOOOO ooooXXXXXXXXXX OOOOOOOOOOOOOOOOOOOOOOOO",
"OOOOOOOOOOOOOOOOOOOOOOO ooooooXXXXXXXXXX OOOOOOOOOOOOOOOOOOOOOOO",
"OOOOOOOOOOOOOOOOOOOOOO ooooooooXXXXXXXXXX OOOOOOOOOOOOOOOOOOOOOO",
"OOOOOOOOOOOOOOOOOOOOO oooooooooXXXXXXXXXXX OOOOOOOOOOOOOOOOOOOOO",
"OOOOOOOOOOOOOOOOOOOO ooooooooooXXXXXXXXXXXX OOOOOOOOOOOOOOOOOOOO",
"OOOOOOOOOOOOOOOOOOO oooooooooooXXXXXXXXXXXXX OOOOOOOOOOOOOOOOOOO",
"OOOOOOOOOOOOOOOOOO oooooooooooXXXXXXXXXXXXXXX OOOOOOOOOOOOOOOOOO",
"OOOOOOOOOOOOOOOOO ooooooooooXXXXXXXXXXXXXXXXXX OOOOOOOOOOOOOOOOO",
"OOOOOOOOOOOOOOOO oooooooooooXXXXXXXXXXXXXXXXXXX OOOOOOOOOOOOOOOO",
"OOOOOOOOOOOOOOO oooooooooooXXXXXXXXXXXXXXXXXXXXX OOOOOOOOOOOOOOO",
"OOOOOOOOOOOOOO oooooooooooXXXXXXXXXXXXXXXXXXXX... OOOOOOOOOOOOOO",
"OOOOOOOOOOOOO oooooooooooXXXXXXXXXXXXXXXXXXXX..... OOOOOOOOOOOOO",
"OOOOOOOOOOOO ooooooooooooXXXXXXXXXXXXXXXXXXX....... OOOOOOOOOOOO",
"OOOOOOOOOOO oooooooooooooXXXXXXXXXXXXXXXXXX......... OOOOOOOOOOO",
"OOOOOOOOOO ooooooooooooooXXXXXXXXXXXXXXXXX........... OOOOOOOOOO",
"OOOOOOOOO ooooooooooooooXXXXXXXXXXXXXXXXXX............ OOOOOOOOO",
"OOOOOOOO oooooooooooooooXXXXXXXXXXXXXXXXXX............. OOOOOOOO",
"OOOOOOO oooooooooooooooXXXXXXXXXXXXXXXXXXX.............. OOOOOOO",
"OOOOOO ooooooooooooooooXXXXXXXXXXXXXXXXXXXX.............. OOOOOO",
"OOOOO ooooooooooooooooXXXXXXXXXXXXXXXXXXXXX............... OOOOO",
"OOOO oooooooooooooooooXXXXXXXXXXXXXXXXXXXXX................ OOOO",
"OOO oooooooooooooooooXXXXXXXXXXXXXXXXXXXXXX................. OOO",
"OO ooooooooooooooooooXXXXXXXXXXXXXXXXXXXXXX.................. OO",
"O oooooooooooooooooooXXXXXXXXXXXXXXXXXXXXXX................... O",
" oooooooooooooooooooXXXXXXXXXXXXXXXXXXXXXX..................... ",
" oooooooooooooooooooXXXXXXXXXXXXXXXXXXXXXX..................... ",
"O ooooooooooooooooooXXXXXXXXXXXXXXXXXXXXXX.................... O",
"OO ooooooooooooooooXXXXXXXXXXXXXXXXXXXXXXX................... OO",
"OOO oooooooooooooooXXXXXXXXXXXXXXXXXXXXXXX.................. OOO",
"OOOO ooooooooooooooXXXXXXXXXXXXXXXXXXXXXX.................. OOOO",
"OOOOO oooooooooooooXXXXXXXXXXXXXXXXXXXXXX................. OOOOO",
"OOOOOO oooooooooooXXXXXXXXXXXXXXXXXXXXX.................. OOOOOO",
"OOOOOOO ooooooooooXXXXXXXXXXXXXXXXXXXX.................. OOOOOOO",
"OOOOOOOO oooooooooXXXXXXXXXXXXXXXXXXXX................. OOOOOOOO",
"OOOOOOOOO ooooooooXXXXXXXXXXXXXXXXXXX................. OOOOOOOOO",
"OOOOOOOOOO ooooooXXXXXXXXXXXXXXXXXXX................. OOOOOOOOOO",
"OOOOOOOOOOO ooooXXXXXXXXXXXXXXXXXXX................. OOOOOOOOOOO",
"OOOOOOOOOOOO ooXXXXXXXXXXXXXXXXXXX................. OOOOOOOOOOOO",
"OOOOOOOOOOOOO oXXXXXXXXXXXXXXXXXXX................ OOOOOOOOOOOOO",
"OOOOOOOOOOOOOO XXXXXXXXXXXXXXXXXX................ OOOOOOOOOOOOOO",
"OOOOOOOOOOOOOOO XXXXXXXXXXXXXXX................. OOOOOOOOOOOOOOO",
"OOOOOOOOOOOOOOOO XXXXXXXXXXXXX................. OOOOOOOOOOOOOOOO",
"OOOOOOOOOOOOOOOOO XXXXXXXXX................... OOOOOOOOOOOOOOOOO",
"OOOOOOOOOOOOOOOOOO XXXXXXX................... OOOOOOOOOOOOOOOOOO",
"OOOOOOOOOOOOOOOOOOO XXXXX................... OOOOOOOOOOOOOOOOOOO",
"OOOOOOOOOOOOOOOOOOOO XXX................... OOOOOOOOOOOOOOOOOOOO",
"OOOOOOOOOOOOOOOOOOOOO XX.................. OOOOOOOOOOOOOOOOOOOOO",
"OOOOOOOOOOOOOOOOOOOOOO X................. OOOOOOOOOOOOOOOOOOOOOO",
"OOOOOOOOOOOOOOOOOOOOOOO ................ OOOOOOOOOOOOOOOOOOOOOOO",
"OOOOOOOOOOOOOOOOOOOOOOOO .............. OOOOOOOOOOOOOOOOOOOOOOOO",
"OOOOOOOOOOOOOOOOOOOOOOOOO ............ OOOOOOOOOOOOOOOOOOOOOOOOO",
"OOOOOOOOOOOOOOOOOOOOOOOOOO .......... OOOOOOOOOOOOOOOOOOOOOOOOOO",
"OOOOOOOOOOOOOOOOOOOOOOOOOOO ........ OOOOOOOOOOOOOOOOOOOOOOOOOOO",
"OOOOOOOOOOOOOOOOOOOOOOOOOOOO ...... OOOOOOOOOOOOOOOOOOOOOOOOOOOO",
"OOOOOOOOOOOOOOOOOOOOOOOOOOOOO .... OOOOOOOOOOOOOOOOOOOOOOOOOOOOO",
"OOOOOOOOOOOOOOOOOOOOOOOOOOOOOO .. OOOOOOOOOOOOOOOOOOOOOOOOOOOOOO",
"OOOOOOOOOOOOOOOOOOOOOOOOOOOOOOO  OOOOOOOOOOOOOOOOOOOOOOOOOOOOOOO"
};
