/* XPM */
static char *_649917991522[] = {
/* columns rows colors chars-per-pixel */
"16 16 5 1 ",
"  c #747474",
". c #D82800",
"X c #FC9838",
"o c gray99",
"O c None",
/* pixels */
"OOOOO..XX..OOOOO",
"OOO..X....X..OOO",
"................",
"O.....X..X.....O",
"OO..X......X.. O",
"....oo....oo....",
"O..oo.oooo.oo..O",
"OO.oo..oo..oo.OO",
"O...o..oo..o...O",
"O.O.oo.oo.oo.O.O",
"OOO...oooo...OOO",
"OOO..O....O..OOO",
"OOOOOO....OOOOOO",
"OOOOOO....OOOOOO",
"OOOOOO....OOOOOO",
"OOOO........OOOO"
};
